<?xml version="1.0" encoding="iso-8859-1"?>
<!-- Generator: Adobe Illustrator 19.0.0, SVG Export Plug-In . SVG Version: 6.00 Build 0)  -->
<svg version="1.1" id="Capa_1" xmlns="http://www.w3.org/2000/svg" xmlns:xlink="http://www.w3.org/1999/xlink" x="0px" y="0px"
	 viewBox="0 0 480 480" style="enable-background:new 0 0 480 480;" xml:space="preserve">
<g>
	
		<linearGradient id="SVGID_1_" gradientUnits="userSpaceOnUse" x1="-103.196" y1="568.625" x2="-38.724" y2="568.625" gradientTransform="matrix(8 0 0 -8 762.9932 4941)">
		<stop  offset="0" style="stop-color:#00A2CC"/>
		<stop  offset="1" style="stop-color:#2B32B2"/>
	</linearGradient>
	<path style="fill:url(#SVGID_1_);" d="M356.001,384h16v16h-16V384z"/>
	
		<linearGradient id="SVGID_2_" gradientUnits="userSpaceOnUse" x1="-103.196" y1="568.625" x2="-38.724" y2="568.625" gradientTransform="matrix(8 0 0 -8 762.9932 4941)">
		<stop  offset="0" style="stop-color:#00A2CC"/>
		<stop  offset="1" style="stop-color:#2B32B2"/>
	</linearGradient>
	<path style="fill:url(#SVGID_2_);" d="M324.001,384h16v16h-16V384z"/>
	
		<linearGradient id="SVGID_3_" gradientUnits="userSpaceOnUse" x1="-103.196" y1="568.625" x2="-38.724" y2="568.625" gradientTransform="matrix(8 0 0 -8 762.9932 4941)">
		<stop  offset="0" style="stop-color:#00A2CC"/>
		<stop  offset="1" style="stop-color:#2B32B2"/>
	</linearGradient>
	<path style="fill:url(#SVGID_3_);" d="M292.001,384h16v16h-16V384z"/>
	
		<linearGradient id="SVGID_4_" gradientUnits="userSpaceOnUse" x1="-103.196" y1="568.625" x2="-38.724" y2="568.625" gradientTransform="matrix(8 0 0 -8 762.9932 4941)">
		<stop  offset="0" style="stop-color:#00A2CC"/>
		<stop  offset="1" style="stop-color:#2B32B2"/>
	</linearGradient>
	<path style="fill:url(#SVGID_4_);" d="M260.001,384h16v16h-16V384z"/>
</g>
<g>
	
		<linearGradient id="SVGID_5_" gradientUnits="userSpaceOnUse" x1="-103.196" y1="587.625" x2="-38.724" y2="587.625" gradientTransform="matrix(8 0 0 -8 762.9932 4941)">
		<stop  offset="0" style="stop-color:#00A2CC"/>
		<stop  offset="1" style="stop-color:#2B32B2"/>
	</linearGradient>
	<path style="fill:url(#SVGID_5_);" d="M396.001,320h-89.392c-5.67-34.66-29.962-63.383-63.2-74.728
		c16.784-7.842,31.355-19.735,42.4-34.608h6.192c30.928-0.045,55.963-25.154,55.918-56.082c-0.027-18.33-9.023-35.487-24.086-45.934
		C321.993,48.183,272.494,0.093,212.001,0h-32C119.508,0.093,70.009,48.183,68.169,108.648
		c-25.412,17.52-31.809,52.324-14.289,77.735c5.589,8.106,13.22,14.592,22.121,18.801V248c0,4.418,3.582,8,8,8h18.664
		c4.418,0,8-3.582,8-8s-3.582-8-8-8H92.001v-29.968c2.648,0.401,5.322,0.612,8,0.632h6.224
		c11.073,14.908,25.686,26.822,42.52,34.664c-38.69,13.351-64.676,49.744-64.744,90.672v136c0,4.418,3.582,8,8,8h304
		c22.08-0.026,39.974-17.92,40-40v-80C435.974,337.92,418.081,320.026,396.001,320L396.001,320z M332.001,154.664
		c-0.026,22.08-17.92,39.974-40,40h-8v-80h8C314.081,114.69,331.975,132.584,332.001,154.664z M180.001,16h32
		c48.667,0.074,89.596,36.516,95.296,84.848c-2.868-0.823-5.797-1.414-8.76-1.768C280.563,58.468,240.412,32.201,196.001,32
		c-44.529-0.189-84.877,26.205-102.544,67.08c-2.96,0.353-5.887,0.944-8.752,1.768C90.405,52.516,131.334,16.074,180.001,16
		L180.001,16z M108.001,194.664h-8c-22.091,0-40-17.909-40-40s17.909-40,40-40h8V194.664z M123.041,206.272
		c0.608-1.107,0.938-2.345,0.96-3.608v-96c0-4.418-3.582-8-8-8h-4.592C128.001,67.369,160.58,47.857,196.001,48
		c35.328,0.164,67.752,19.59,84.56,50.664h-4.56c-4.418,0-8,3.582-8,8v96c0.022,1.263,0.352,2.501,0.96,3.608
		c-34.268,40.295-94.713,45.18-135.007,10.913C130.028,213.847,126.379,210.197,123.041,206.272z M100.001,464V336
		c0.048-44.163,35.837-79.952,80-80h32c36.832-0.169,68.952,24.997,77.6,60.8l-65.176-43.448c-3.673-2.456-8.641-1.469-11.097,2.204
		c-1.599,2.391-1.791,5.456-0.503,8.028L231.057,320h-11.056c-4.418,0-8,3.582-8,8v112c0.029,8.684,2.914,17.117,8.208,24H100.001z
		 M420.001,440c0,13.255-10.745,24-24,24h-144c-13.255,0-24-10.745-24-24V336h16c4.418,0.024,8.02-3.538,8.044-7.956
		c0.007-1.256-0.282-2.496-0.844-3.62l-10.528-21.056l46.928,31.288c1.305,0.867,2.834,1.334,4.4,1.344h104
		c13.255,0,24,10.745,24,24V440z"/>
	
		<linearGradient id="SVGID_6_" gradientUnits="userSpaceOnUse" x1="-103.196" y1="600.625" x2="-38.724" y2="600.625" gradientTransform="matrix(8 0 0 -8 762.9932 4941)">
		<stop  offset="0" style="stop-color:#00A2CC"/>
		<stop  offset="1" style="stop-color:#2B32B2"/>
	</linearGradient>
	<path style="fill:url(#SVGID_6_);" d="M220.001,128h32v16h-32V128z"/>
	
		<linearGradient id="SVGID_7_" gradientUnits="userSpaceOnUse" x1="-103.196" y1="600.625" x2="-38.724" y2="600.625" gradientTransform="matrix(8 0 0 -8 762.9932 4941)">
		<stop  offset="0" style="stop-color:#00A2CC"/>
		<stop  offset="1" style="stop-color:#2B32B2"/>
	</linearGradient>
	<path style="fill:url(#SVGID_7_);" d="M140.001,128h32v16h-32V128z"/>
</g>
<g>
</g>
<g>
</g>
<g>
</g>
<g>
</g>
<g>
</g>
<g>
</g>
<g>
</g>
<g>
</g>
<g>
</g>
<g>
</g>
<g>
</g>
<g>
</g>
<g>
</g>
<g>
</g>
<g>
</g>
</svg>
